<mxfile host="drawio-plugin" modified="2023-04-01T16:07:30.533Z" agent="5.0 (Windows NT 6.2; Win64; x64) AppleWebKit/537.36 (KHTML, like Gecko) Chrome/104.0.5112.102 Safari/537.36" etag="L09LamV0mxUsMEB1-S82" version="20.5.3" type="embed"><diagram name="Page-1" id="7G-DjHpbfsuIoVl0FtdE"><mxGraphModel dx="1807" dy="1730" grid="1" gridSize="10" guides="1" tooltips="1" connect="1" arrows="1" fold="1" page="1" pageScale="1" pageWidth="850" pageHeight="1100" math="0" shadow="0"><root><mxCell id="0"/><mxCell id="1" parent="0"/><mxCell id="S8DIYmhpRidrxks-ISGL-5" value="video" style="swimlane;childLayout=stackLayout;horizontal=1;startSize=30;horizontalStack=0;rounded=1;fontSize=14;fontStyle=0;strokeWidth=2;resizeParent=0;resizeLast=1;shadow=0;dashed=0;align=center;" parent="1" vertex="1"><mxGeometry x="120" y="80" width="160" height="120" as="geometry"/></mxCell><mxCell id="S8DIYmhpRidrxks-ISGL-6" value="+Attribute1&#10;+Attribute2&#10;+Attribute3" style="align=left;strokeColor=none;fillColor=none;spacingLeft=4;fontSize=12;verticalAlign=top;resizable=0;rotatable=0;part=1;" parent="S8DIYmhpRidrxks-ISGL-5" vertex="1"><mxGeometry y="30" width="160" height="90" as="geometry"/></mxCell><mxCell id="S8DIYmhpRidrxks-ISGL-7" value="channel" style="swimlane;childLayout=stackLayout;horizontal=1;startSize=30;horizontalStack=0;rounded=1;fontSize=14;fontStyle=0;strokeWidth=2;resizeParent=0;resizeLast=1;shadow=0;dashed=0;align=center;" parent="1" vertex="1"><mxGeometry x="370" y="80" width="160" height="120" as="geometry"/></mxCell><mxCell id="S8DIYmhpRidrxks-ISGL-8" value="+Attribute1&#10;+Attribute2&#10;+Attribute3" style="align=left;strokeColor=none;fillColor=none;spacingLeft=4;fontSize=12;verticalAlign=top;resizable=0;rotatable=0;part=1;" parent="S8DIYmhpRidrxks-ISGL-7" vertex="1"><mxGeometry y="30" width="160" height="90" as="geometry"/></mxCell><mxCell id="S8DIYmhpRidrxks-ISGL-9" value="comment" style="swimlane;childLayout=stackLayout;horizontal=1;startSize=30;horizontalStack=0;rounded=1;fontSize=14;fontStyle=0;strokeWidth=2;resizeParent=0;resizeLast=1;shadow=0;dashed=0;align=center;" parent="1" vertex="1"><mxGeometry x="-140" y="80" width="160" height="120" as="geometry"/></mxCell><mxCell id="S8DIYmhpRidrxks-ISGL-10" value="+Attribute1&#10;+Attribute2&#10;+Attribute3" style="align=left;strokeColor=none;fillColor=none;spacingLeft=4;fontSize=12;verticalAlign=top;resizable=0;rotatable=0;part=1;" parent="S8DIYmhpRidrxks-ISGL-9" vertex="1"><mxGeometry y="30" width="160" height="90" as="geometry"/></mxCell><mxCell id="S8DIYmhpRidrxks-ISGL-11" value="category" style="swimlane;childLayout=stackLayout;horizontal=1;startSize=30;horizontalStack=0;rounded=1;fontSize=14;fontStyle=0;strokeWidth=2;resizeParent=0;resizeLast=1;shadow=0;dashed=0;align=center;" parent="1" vertex="1"><mxGeometry x="640" y="240" width="160" height="120" as="geometry"/></mxCell><mxCell id="S8DIYmhpRidrxks-ISGL-12" value="+Attribute1&#10;+Attribute2&#10;+Attribute3" style="align=left;strokeColor=none;fillColor=none;spacingLeft=4;fontSize=12;verticalAlign=top;resizable=0;rotatable=0;part=1;" parent="S8DIYmhpRidrxks-ISGL-11" vertex="1"><mxGeometry y="30" width="160" height="90" as="geometry"/></mxCell><mxCell id="S8DIYmhpRidrxks-ISGL-16" style="edgeStyle=orthogonalEdgeStyle;rounded=0;orthogonalLoop=1;jettySize=auto;html=1;exitX=0.5;exitY=0;exitDx=0;exitDy=0;entryX=0.5;entryY=1;entryDx=0;entryDy=0;endArrow=ERoneToMany;endFill=0;" parent="1" source="S8DIYmhpRidrxks-ISGL-11" target="S8DIYmhpRidrxks-ISGL-8" edge="1"><mxGeometry relative="1" as="geometry"/></mxCell><mxCell id="S8DIYmhpRidrxks-ISGL-17" style="edgeStyle=orthogonalEdgeStyle;rounded=0;orthogonalLoop=1;jettySize=auto;html=1;exitX=0;exitY=0.5;exitDx=0;exitDy=0;entryX=0.5;entryY=1;entryDx=0;entryDy=0;endArrow=ERoneToMany;endFill=0;" parent="1" source="S8DIYmhpRidrxks-ISGL-12" target="S8DIYmhpRidrxks-ISGL-6" edge="1"><mxGeometry relative="1" as="geometry"><mxPoint x="280" y="342.5" as="sourcePoint"/><mxPoint x="460" y="210" as="targetPoint"/></mxGeometry></mxCell><mxCell id="S8DIYmhpRidrxks-ISGL-18" style="edgeStyle=orthogonalEdgeStyle;rounded=0;orthogonalLoop=1;jettySize=auto;html=1;exitX=0;exitY=0.25;exitDx=0;exitDy=0;endArrow=ERoneToMany;endFill=0;entryX=1;entryY=0.25;entryDx=0;entryDy=0;" parent="1" source="S8DIYmhpRidrxks-ISGL-8" target="S8DIYmhpRidrxks-ISGL-6" edge="1"><mxGeometry relative="1" as="geometry"><mxPoint x="290" y="352.5" as="sourcePoint"/><mxPoint x="540" y="320" as="targetPoint"/></mxGeometry></mxCell><mxCell id="S8DIYmhpRidrxks-ISGL-19" style="edgeStyle=orthogonalEdgeStyle;rounded=0;orthogonalLoop=1;jettySize=auto;html=1;exitX=0;exitY=0.25;exitDx=0;exitDy=0;entryX=1;entryY=0.5;entryDx=0;entryDy=0;endArrow=ERoneToMany;endFill=0;" parent="1" source="S8DIYmhpRidrxks-ISGL-6" target="S8DIYmhpRidrxks-ISGL-10" edge="1"><mxGeometry relative="1" as="geometry"><mxPoint x="300" y="362.5" as="sourcePoint"/><mxPoint x="480" y="230" as="targetPoint"/></mxGeometry></mxCell><mxCell id="S8DIYmhpRidrxks-ISGL-20" value="Date" style="swimlane;childLayout=stackLayout;horizontal=1;startSize=30;horizontalStack=0;rounded=1;fontSize=14;fontStyle=0;strokeWidth=2;resizeParent=0;resizeLast=1;shadow=0;dashed=0;align=center;" parent="1" vertex="1"><mxGeometry x="120" y="-100" width="160" height="120" as="geometry"/></mxCell><mxCell id="S8DIYmhpRidrxks-ISGL-21" value="+Attribute1&#10;+Attribute2&#10;+Attribute3" style="align=left;strokeColor=none;fillColor=none;spacingLeft=4;fontSize=12;verticalAlign=top;resizable=0;rotatable=0;part=1;" parent="S8DIYmhpRidrxks-ISGL-20" vertex="1"><mxGeometry y="30" width="160" height="90" as="geometry"/></mxCell><mxCell id="S8DIYmhpRidrxks-ISGL-22" value="Country" style="swimlane;childLayout=stackLayout;horizontal=1;startSize=30;horizontalStack=0;rounded=1;fontSize=14;fontStyle=0;strokeWidth=2;resizeParent=0;resizeLast=1;shadow=0;dashed=0;align=center;" parent="1" vertex="1"><mxGeometry x="660" y="10" width="160" height="120" as="geometry"/></mxCell><mxCell id="S8DIYmhpRidrxks-ISGL-23" value="+Attribute1&#10;+Attribute2&#10;+Attribute3" style="align=left;strokeColor=none;fillColor=none;spacingLeft=4;fontSize=12;verticalAlign=top;resizable=0;rotatable=0;part=1;" parent="S8DIYmhpRidrxks-ISGL-22" vertex="1"><mxGeometry y="30" width="160" height="90" as="geometry"/></mxCell><mxCell id="S8DIYmhpRidrxks-ISGL-25" style="edgeStyle=orthogonalEdgeStyle;rounded=0;orthogonalLoop=1;jettySize=auto;html=1;exitX=0;exitY=0.25;exitDx=0;exitDy=0;entryX=0.5;entryY=0;entryDx=0;entryDy=0;endArrow=ERoneToMany;endFill=0;" parent="1" source="S8DIYmhpRidrxks-ISGL-23" target="S8DIYmhpRidrxks-ISGL-7" edge="1"><mxGeometry relative="1" as="geometry"><mxPoint x="280" y="342.5" as="sourcePoint"/><mxPoint x="460" y="210" as="targetPoint"/></mxGeometry></mxCell></root></mxGraphModel></diagram></mxfile>